<svg width="645" height="118" viewBox="0 0 645 118" fill="none" xmlns="http://www.w3.org/2000/svg">
<path fill-rule="evenodd" clip-rule="evenodd" d="M62.0052 13.575C63.7142 7.483 65.5392 1.937 66.0602 1.249C66.5822 0.562001 67.0662 0 67.1362 0C67.2072 0.001 71.0892 0.693003 75.7642 1.537C93.5082 4.743 108.588 5.982 129.975 5.99L151.687 5.999L152.759 10.249C160.281 40.068 177.311 64.129 207.014 86.908C220.696 97.4 220.924 99.157 208.764 100.406C186.113 102.732 172.904 105.747 150.056 113.804C140.005 117.349 138.354 117.663 134.056 116.851C107.652 111.862 50.9002 107.587 18.8712 108.174C3.02024 108.464 1.38024 108.333 0.371241 106.698C-0.57276 105.169 0.0752421 104.225 4.76424 100.298C13.2342 93.204 28.7602 77.076 33.7642 70.173C47.4792 51.254 56.5192 33.137 62.0052 13.575ZM127.437 12.392C116.139 12.329 102.514 11.582 94.2642 10.572C86.5642 9.63 78.5772 8.488 76.5142 8.035C71.8422 7.009 71.8382 7.078 75.8842 19.737C82.4432 40.262 91.4242 57.659 104.67 75.499C111.911 85.251 128.722 102.942 135.788 108.247L139.313 110.892L155.288 105.486C171.544 99.985 186.551 96.497 198.901 95.35C202.675 94.999 205.746 94.439 205.724 94.105C205.702 93.772 202.924 91.474 199.551 88.999C189.32 81.49 171.632 63.285 165.439 53.888C158.849 43.887 152.931 31.676 149.224 20.431L146.609 12.499L127.437 12.392ZM116.94 99.369C101.816 83.936 88.5112 65.15 79.7672 46.883C77.4992 42.144 73.9462 33.444 71.8722 27.549L68.1002 16.831L66.3582 21.665C55.4732 51.88 39.1852 77.432 18.7552 96.347L12.6502 101.999H23.7122H34.7742L39.7872 95.249C46.4632 86.26 55.8832 66.925 59.7912 54.192C62.5592 45.175 63.2122 43.923 65.0072 44.192C67.5722 44.576 68.0032 45.419 71.2962 56.499C74.8852 68.576 82.3902 84.246 90.2172 96.003L96.6472 105.66L107.455 106.862C113.4 107.523 120.143 108.329 122.44 108.653L126.616 109.242L116.94 99.369ZM83.4432 97.362C78.2332 89.286 72.1522 77.299 68.2932 67.499C65.0312 59.217 65.0012 59.174 64.1442 61.606C60.2382 72.685 53.2452 86.546 46.7062 96.174L42.8512 101.849L49.0572 102.374C60.2122 103.317 87.2572 104.826 87.5672 104.522C87.7342 104.359 85.8782 101.137 83.4432 97.362ZM245.32 85.56C248.98 87.12 253 87.9 257.38 87.9C260.32 87.9 263.23 87.54 266.11 86.82C269.05 86.04 271.69 84.99 274.03 83.67C276.43 82.35 278.32 80.88 279.7 79.26L274.84 71.34C273.46 72.72 271.93 73.92 270.25 74.94C268.57 75.96 266.77 76.74 264.85 77.28C262.93 77.82 260.98 78.09 259 78.09C255.76 78.09 252.79 77.58 250.09 76.56C247.45 75.48 245.17 73.95 243.25 71.97C241.33 69.99 239.83 67.62 238.75 64.86C237.73 62.04 237.22 58.92 237.22 55.5C237.22 52.26 237.76 49.29 238.84 46.59C239.92 43.83 241.39 41.46 243.25 39.48C245.17 37.5 247.39 35.97 249.91 34.89C252.49 33.75 255.25 33.18 258.19 33.18C260.05 33.18 261.88 33.48 263.68 34.08C265.54 34.68 267.34 35.58 269.08 36.78C270.88 37.92 272.65 39.36 274.39 41.1L280.87 34.35C279.37 32.25 277.42 30.39 275.02 28.77C272.68 27.09 270.04 25.8 267.1 24.9C264.22 23.94 261.25 23.46 258.19 23.46C253.87 23.46 249.85 24.27 246.13 25.89C242.41 27.51 239.14 29.79 236.32 32.73C233.5 35.67 231.28 39.09 229.66 42.99C228.1 46.83 227.32 51 227.32 55.5C227.32 60.24 228.04 64.59 229.48 68.55C230.98 72.51 233.08 75.96 235.78 78.9C238.48 81.78 241.66 84 245.32 85.56ZM298.034 84.66C301.274 86.82 304.844 87.9 308.744 87.9C311.024 87.9 313.184 87.54 315.224 86.82C317.324 86.1 319.214 85.14 320.894 83.94C322.634 82.74 324.044 81.39 325.124 79.89C325.154 79.8486 325.184 79.8071 325.214 79.7657V87H334.574V39.75H325.214V47.0033C324.278 45.4505 323.078 44.0827 321.614 42.9C320.114 41.58 318.344 40.56 316.304 39.84C314.264 39.12 312.014 38.76 309.554 38.76C305.414 38.76 301.664 39.81 298.304 41.91C295.004 44.01 292.364 46.92 290.384 50.64C288.464 54.3 287.504 58.5 287.504 63.24C287.504 67.92 288.464 72.12 290.384 75.84C292.304 79.56 294.854 82.5 298.034 84.66ZM318.644 77.28C316.484 78.66 313.994 79.35 311.174 79.35C308.414 79.35 305.954 78.66 303.794 77.28C301.694 75.9 300.014 74.01 298.754 71.61C297.554 69.15 296.954 66.36 296.954 63.24C296.954 60.18 297.554 57.45 298.754 55.05C300.014 52.65 301.694 50.76 303.794 49.38C305.954 48 308.414 47.31 311.174 47.31C313.994 47.31 316.484 48 318.644 49.38C320.804 50.76 322.484 52.65 323.684 55.05C324.944 57.45 325.574 60.18 325.574 63.24C325.574 66.36 324.944 69.15 323.684 71.61C322.484 74.01 320.804 75.9 318.644 77.28ZM347.337 39.75V87H356.697V58.56C356.697 57 356.997 55.56 357.597 54.24C358.197 52.86 359.037 51.69 360.117 50.73C361.197 49.71 362.457 48.93 363.897 48.39C365.337 47.79 366.897 47.49 368.577 47.49C370.557 47.49 372.237 47.94 373.617 48.84C374.997 49.74 376.047 51.06 376.767 52.8C377.487 54.48 377.847 56.55 377.847 59.01V87H387.207V58.74C387.207 57.12 387.507 55.65 388.107 54.33C388.707 52.95 389.547 51.75 390.627 50.73C391.707 49.71 392.967 48.93 394.407 48.39C395.907 47.79 397.497 47.49 399.177 47.49C401.337 47.49 403.107 47.91 404.487 48.75C405.867 49.59 406.887 50.88 407.547 52.62C408.267 54.3 408.627 56.49 408.627 59.19V87H417.987V58.65C417.987 54.27 417.387 50.61 416.187 47.67C415.047 44.73 413.307 42.54 410.967 41.1C408.687 39.66 405.777 38.94 402.237 38.94C400.617 38.94 398.967 39.21 397.287 39.75C395.607 40.29 394.017 41.04 392.517 42C391.017 42.96 389.667 44.07 388.467 45.33C387.431 46.4203 386.594 47.585 385.954 48.8239C385.381 47.1051 384.629 45.6105 383.697 44.34C382.377 42.54 380.697 41.19 378.657 40.29C376.617 39.39 374.247 38.94 371.547 38.94C369.687 38.94 367.857 39.27 366.057 39.93C364.317 40.59 362.667 41.49 361.107 42.63C359.607 43.71 358.317 44.97 357.237 46.41C357.048 46.6772 356.868 46.9466 356.697 47.2179V39.75H347.337ZM430.398 39.75V106.8H439.758V80.8271C440.061 81.1771 440.391 81.5247 440.748 81.87C442.548 83.61 444.738 85.05 447.318 86.19C449.898 87.27 452.568 87.81 455.328 87.81C459.468 87.81 463.188 86.76 466.488 84.66C469.788 82.5 472.368 79.59 474.228 75.93C476.148 72.21 477.108 68.01 477.108 63.33C477.108 58.59 476.148 54.39 474.228 50.73C472.308 47.07 469.698 44.19 466.398 42.09C463.098 39.99 459.318 38.94 455.058 38.94C452.478 38.94 449.958 39.48 447.498 40.56C445.098 41.58 443.058 42.93 441.378 44.61C440.744 45.2213 440.204 45.8455 439.758 46.4825V39.75H430.398ZM461.178 77.19C459.018 78.57 456.558 79.26 453.798 79.26C450.978 79.26 448.488 78.57 446.328 77.19C444.168 75.81 442.458 73.92 441.198 71.52C439.938 69.12 439.308 66.39 439.308 63.33C439.308 60.27 439.938 57.54 441.198 55.14C442.458 52.74 444.168 50.88 446.328 49.56C448.488 48.18 450.978 47.49 453.798 47.49C456.618 47.49 459.108 48.18 461.268 49.56C463.428 50.94 465.108 52.83 466.308 55.23C467.568 57.57 468.198 60.27 468.198 63.33C468.198 66.39 467.568 69.12 466.308 71.52C465.048 73.92 463.338 75.81 461.178 77.19ZM505.895 86.91C507.935 87.57 509.975 87.9 512.015 87.9C516.155 87.9 519.875 86.85 523.175 84.75C526.475 82.59 529.055 79.65 530.915 75.93C532.835 72.21 533.795 67.98 533.795 63.24C533.795 58.5 532.835 54.3 530.915 50.64C528.995 46.92 526.385 44.01 523.085 41.91C519.785 39.81 516.005 38.76 511.745 38.76C509.825 38.76 507.935 39.09 506.075 39.75C504.215 40.35 502.475 41.19 500.855 42.27C499.295 43.29 498.005 44.46 496.985 45.78C496.792 46.0183 496.612 46.2587 496.445 46.5012V20.4H487.175V86.73H496.445V80.8154C497.55 82.0578 498.87 83.2193 500.405 84.3C502.085 85.38 503.915 86.25 505.895 86.91ZM517.865 77.37C515.705 78.75 513.245 79.44 510.485 79.44C507.665 79.44 505.175 78.75 503.015 77.37C500.855 75.93 499.145 74.01 497.885 71.61C496.625 69.15 495.995 66.36 495.995 63.24C495.995 60.18 496.625 57.45 497.885 55.05C499.145 52.59 500.855 50.67 503.015 49.29C505.175 47.91 507.665 47.22 510.485 47.22C513.305 47.22 515.795 47.91 517.955 49.29C520.115 50.67 521.795 52.59 522.995 55.05C524.255 57.45 524.885 60.18 524.885 63.24C524.885 66.36 524.255 69.15 522.995 71.61C521.735 74.01 520.025 75.93 517.865 77.37ZM543.865 39.75V87H546.205H548.545H553.135V58.38C553.135 56.82 553.435 55.38 554.035 54.06C554.695 52.68 555.565 51.48 556.645 50.46C557.785 49.44 559.105 48.66 560.605 48.12C562.105 47.52 563.755 47.22 565.555 47.22C567.775 47.1 569.635 47.46 571.135 48.3C572.635 49.08 573.745 50.37 574.465 52.17C575.185 53.91 575.545 56.13 575.545 58.83V87H584.815V58.2C584.815 53.82 584.215 50.19 583.015 47.31C581.815 44.43 580.015 42.3 577.615 40.92C575.215 39.48 572.215 38.76 568.615 38.76C566.095 38.76 563.635 39.33 561.235 40.47C558.835 41.55 556.765 42.99 555.025 44.79C554.294 45.5205 553.664 46.2826 553.135 47.0765V39.75H543.865ZM616.11 86.91C618.15 87.57 620.19 87.9 622.23 87.9C626.37 87.9 630.09 86.85 633.39 84.75C636.69 82.59 639.27 79.65 641.13 75.93C643.05 72.21 644.01 67.98 644.01 63.24C644.01 58.5 643.05 54.3 641.13 50.64C639.21 46.92 636.6 44.01 633.3 41.91C630 39.81 626.22 38.76 621.96 38.76C620.04 38.76 618.15 39.09 616.29 39.75C614.43 40.35 612.69 41.19 611.07 42.27C609.51 43.29 608.22 44.46 607.2 45.78C607.007 46.0182 606.827 46.2586 606.66 46.5012V20.4H597.39V86.73H606.66V80.8154C607.765 82.0578 609.085 83.2193 610.62 84.3C612.3 85.38 614.13 86.25 616.11 86.91ZM628.08 77.37C625.92 78.75 623.46 79.44 620.7 79.44C617.88 79.44 615.39 78.75 613.23 77.37C611.07 75.93 609.36 74.01 608.1 71.61C606.84 69.15 606.21 66.36 606.21 63.24C606.21 60.18 606.84 57.45 608.1 55.05C609.36 52.59 611.07 50.67 613.23 49.29C615.39 47.91 617.88 47.22 620.7 47.22C623.52 47.22 626.01 47.91 628.17 49.29C630.33 50.67 632.01 52.59 633.21 55.05C634.47 57.45 635.1 60.18 635.1 63.24C635.1 66.36 634.47 69.15 633.21 71.61C631.95 74.01 630.24 75.93 628.08 77.37Z" fill="url(#paint0_linear_1_17)"/>
<defs>
<linearGradient id="paint0_linear_1_17" x1="322.005" y1="0" x2="322.005" y2="117.222" gradientUnits="userSpaceOnUse">
<stop stop-color="#03A4FF"/>
<stop offset="1" stop-color="#00F0FF"/>
</linearGradient>
</defs>
</svg>
